<svg preserveAspectRatio="none" overflow="visible" style="display: block;" width="37.5" height="37.1672" viewBox="0 0 37.5 37.1672" fill="none" xmlns="http://www.w3.org/2000/svg">
<g id="thesvg-color:openai-chatgpt" clip-path="url(#clip0_0_12)">
<path id="Vector" fill-rule="evenodd" clip-rule="evenodd" d="M14.3828 13.5281V9.99688C14.3828 9.7 14.4953 9.47656 14.7547 9.32813L21.8531 5.24063C22.8203 4.68281 23.9719 4.42344 25.1609 4.42344C29.6203 4.42344 32.4453 7.87969 32.4453 11.5578C32.4453 11.8188 32.4453 12.1156 32.4078 12.4125L25.0484 8.10156C24.8484 7.97488 24.6165 7.90763 24.3797 7.90763C24.1429 7.90763 23.911 7.97488 23.7109 8.10156L14.3828 13.5281ZM30.9594 27.2781V18.8438C30.9594 18.3234 30.7359 17.9531 30.2891 17.6922L20.9609 12.2656L24.0078 10.5188C24.118 10.4455 24.2474 10.4065 24.3797 10.4065C24.512 10.4065 24.6414 10.4455 24.7516 10.5188L31.85 14.6078C33.8953 15.7953 35.2703 18.3234 35.2703 20.7766C35.2703 23.6016 33.5984 26.2031 30.9578 27.2813L30.9594 27.2781ZM12.1906 19.8484L9.14375 18.0641C9.02352 18.0006 8.92425 17.9037 8.85798 17.785C8.7917 17.6663 8.76125 17.531 8.77031 17.3953V9.21719C8.77031 5.24063 11.8172 2.22969 15.9438 2.22969C17.5063 2.22969 18.9547 2.75 20.1813 3.67969L12.8594 7.91719C12.4141 8.17656 12.1906 8.54844 12.1906 9.06875V19.8484ZM18.75 23.6375L14.3828 21.1844V15.9813L18.75 13.5281L23.1172 15.9813V21.1844L18.75 23.6375ZM21.5562 34.9344C19.9937 34.9344 18.5453 34.4156 17.3187 33.4859L24.6406 29.2484C25.0859 28.9891 25.3094 28.6172 25.3094 28.0969V17.3188L28.3938 19.1031C28.6547 19.2516 28.7656 19.475 28.7656 19.7719V27.9484C28.7656 31.925 25.6812 34.9344 21.5562 34.9344ZM12.7484 26.6484L5.64844 22.5594C3.60469 21.3703 2.22969 18.8438 2.22969 16.3906C2.22445 14.9967 2.63552 13.6329 3.41024 12.474C4.18495 11.3151 5.28802 10.414 6.57813 9.88594V18.3594C6.57813 18.8797 6.80156 19.2516 7.24688 19.5125L16.5391 24.9016L13.4922 26.6484C13.382 26.7217 13.2526 26.7607 13.1203 26.7607C12.988 26.7607 12.8586 26.7217 12.7484 26.6484ZM12.3391 32.7422C8.13906 32.7422 5.05469 29.5844 5.05469 25.6813C5.05469 25.3844 5.09219 25.0875 5.12813 24.7906L12.45 29.025C12.6494 29.1535 12.8815 29.2219 13.1187 29.2219C13.356 29.2219 13.5881 29.1535 13.7875 29.025L23.1156 23.6375V27.1688C23.1156 27.4656 23.0063 27.6891 22.7453 27.8375L15.6469 31.925C14.6797 32.4828 13.5281 32.7422 12.3391 32.7422ZM21.5562 37.1641C23.6975 37.1634 25.7729 36.4235 27.4318 35.0696C29.0906 33.7156 30.2312 31.8305 30.6609 29.7328C34.8234 28.6547 37.5 24.75 37.5 20.775C37.5 18.1734 36.3859 15.6469 34.3781 13.825C34.5641 13.0438 34.675 12.2641 34.675 11.4844C34.675 6.17031 30.3641 2.19219 25.3844 2.19219C24.385 2.18769 23.3919 2.35143 22.4469 2.67656C20.7127 0.969106 18.379 0.00836836 15.9453 0C13.8038 0.000781909 11.7283 0.740837 10.0694 2.09511C8.4105 3.44938 7.27 5.33482 6.84062 7.43281C2.67656 8.51094 0 12.4141 0 16.3906C0 18.9938 1.11406 21.5203 3.12188 23.3406C2.93594 24.1219 2.825 24.9031 2.825 25.6828C2.825 30.9969 7.13594 34.9734 12.1156 34.9734C13.1188 34.9734 14.0844 34.825 15.0531 34.4906C16.7877 36.1985 19.122 37.1592 21.5562 37.1672V37.1641Z" fill="black"/>
</g>
<defs>
<clipPath id="clip0_0_12">
<rect width="37.5" height="37.1672" fill="white"/>
</clipPath>
</defs>
</svg>
